<svg id="thatAfro_Logo" xmlns="http://www.w3.org/2000/svg" width="822" height="201" viewBox="0 0 822 201">
  <defs>
    <style>
      .cls-1, .cls-2, .cls-4, .cls-5, .cls-6, .cls-7 {
        fill-rule: evenodd;
      }

      .cls-2 {
        fill: #0070b0;
      }

      .cls-3 {
        fill: #2497d9;
      }

      .cls-4 {
        fill: #00a1fd;
      }

      .cls-5 {
        fill: #ac692b;
      }

      .cls-6 {
        fill: #d6a85d;
      }

      .cls-7 {
        fill: #e2ba78;
      }
    </style>
  </defs>
  <path id="tip" class="cls-1" d="M565,198H393L479.006,0Z"/>
  <path id="left_handle" data-name="left handle" class="cls-2" d="M456,198H427l0.6-80.117L434,103l22,13.709V198Z"/>
  <rect id="centre_handle" data-name="centre  handle" class="cls-3" x="455" y="117.563" width="48" height="80.437"/>
  <path id="right_handle" data-name="right handle" class="cls-4" d="M502,198h29V119l-6.613-16L502,117.556V198Z"/>
  <path id="left_wood" data-name="left wood" class="cls-5" d="M433.6,103.382l32.893-75.611,6.911-.028L456,118Z"/>
  <path id="centre_wood" data-name="centre wood" class="cls-6" d="M455,118h48L486,28H472Z"/>
  <path id="right_wood" data-name="right wood" class="cls-7" d="M524.4,103.382L491.511,27.771l-6.911-.028,17.7,90.773Z"/>
  <g id="text">
    <path id="fro" class="cls-1" d="M610.861,40.889a24.436,24.436,0,0,0-12.665,3.1,17.443,17.443,0,0,0-7.426,8.189q-2.188,5.088-2.187,16.988V86.462H574.036V98.771h14.547v98.368h14.242L602.9,98.771h23.114V86.462h-23.1l0.012-14.954q0-9.46.712-11.648A7.422,7.422,0,0,1,607.1,56a13.063,13.063,0,0,1,6.917-1.678q5.594,0,13.428,3.357V43.737a60.226,60.226,0,0,0-16.581-2.848h0Zm32.058,156.25h14.547V159.7q0-28.786,2.645-38.249,3.456-12.306,10.07-18.157t13.733-5.85a19.83,19.83,0,0,1,7.528,1.933l7.426-12a25.992,25.992,0,0,0-12.614-3.764,27.081,27.081,0,0,0-15.055,4.73q-7.224,4.73-13.733,14.292V86.462H642.919V197.139Zm78.4-94.91a57.468,57.468,0,0,0-15.286,39.877q0,23.193,16.153,40.537t41.627,17.344q25.372,0,41.527-17.344T821.5,142.106a57.6,57.6,0,0,0-15.286-39.978q-16.817-18.514-42.393-18.514-25.68,0-42.494,18.615h0Zm72.915,8.444a43.765,43.765,0,0,1,12.813,31.738,45.018,45.018,0,0,1-5.819,22.379,41.234,41.234,0,0,1-15.722,16.022,44.692,44.692,0,0,1-43.487,0A41.214,41.214,0,0,1,726.3,164.79a45.008,45.008,0,0,1-5.819-22.379,43.86,43.86,0,0,1,12.761-31.738Q746,97.55,763.768,97.55,781.428,97.55,794.239,110.673Z"/>
    <path id="that" class="cls-1" d="M19.28,87.462H-0.15V99.771H19.28v98.368H33.521V99.771H56.1V87.462H33.521v-41.1H19.28v41.1ZM76.633,198.139H90.874V157.551q0-21.973,2.034-30.111a40.039,40.039,0,0,1,13.478-21.159,35.12,35.12,0,0,1,23.143-8.545q11.29,0,18.259,5.544t9.613,16.531q1.527,6.408,1.526,25.533v52.8H173.17V141.173q0-22.683-4.578-33.315A37.624,37.624,0,0,0,154.4,90.921a39.247,39.247,0,0,0-22.024-6.307A46.287,46.287,0,0,0,109.9,90.259Q99.52,95.905,90.874,107.3V44.737H76.633v153.4ZM299.1,87.462v20.345a56.146,56.146,0,0,0-19.378-17.395,52.228,52.228,0,0,0-24.669-5.8q-23.6,0-40.385,16.988A56.09,56.09,0,0,0,197.887,142.5q0,24.414,16.632,41.453t40.131,17.039a54.328,54.328,0,0,0,24.363-5.493,61.02,61.02,0,0,0,20.09-16.378v19.023h14.039V87.462H299.1Zm-11.735,23.789q12.651,12.906,12.651,32.109a45.536,45.536,0,0,1-5.639,22.659,41.229,41.229,0,0,1-16.105,15.952,44.47,44.47,0,0,1-22.15,5.894,42.072,42.072,0,0,1-21.695-5.945,43.642,43.642,0,0,1-16.1-16.613,44.842,44.842,0,0,1-.051-44.706,42.942,42.942,0,0,1,37.951-22.254Q274.718,98.347,287.368,111.251Zm70.763-23.789H338.7V99.771h19.43v98.368h14.241V99.771h22.583V87.462H372.372v-41.1H358.131v41.1Z"/>
  </g>
</svg>
